<svg width="512" height="512" viewBox="0 0 512 512" fill="none" xmlns="http://www.w3.org/2000/svg">
<style>
.d {
            fill: #f8f8f8; 
        }
        @media (prefers-color-scheme: light) {
            .d {
                fill: #101112;
            }
        }
</style>
<path class='d' d="M171.3 314.511C191.989 282.136 214.419 265.321 217.319 265.321H253.863V441H217.319V380.265C217.319 339.859 243.616 341.867 251.544 381.018C251.544 358.18 238.975 335.843 217.319 324.298V301.46C148.291 301.46 156.025 425.44 208.425 425.942V441H134.563C135.53 360.439 181.355 301.461 134.563 301.46C82.1639 301.46 73.4625 425.44 125.862 425.942V441H52C52.9668 326.306 129.149 265.321 134.563 265.321H171.3V314.511Z" />
<path class='d' fill-rule="evenodd" clip-rule="evenodd" d="M313.856 140.225H418.648V70H459V353.16H458.875C456.228 405.115 411.551 441 349.46 441H273.504V70H313.856V140.225ZM314.307 412.645H343.811C389.008 412.645 418.511 387.735 418.511 350.9V345.865C418.511 309.295 389.008 284.12 343.811 284.12H314.307V412.645ZM313.856 255.5H349.46C376.638 255.5 400.322 262.243 418.648 274.114V168.845H313.856V255.5Z" />
<path class='d' d="M73.8231 159.989C73.8231 46.9686 253.863 42.458 253.863 134.929H206.907C206.907 104.857 193.599 77.0406 168.238 77.0404C69.5545 77.0404 113.246 212.364 183.304 212.364C217.454 214.87 248.841 190.562 248.841 158.485C235.784 197.579 165.224 210.61 165.224 172.268C165.224 156.48 179.537 143.951 197.114 143.951H253.863V248.952C241.308 248.701 189.832 248.952 176.524 248.952C119.021 249.202 73.8232 213.617 73.8231 159.989Z" />
</svg>
