<svg xmlns="http://www.w3.org/2000/svg" version="1.1" xmlns:xlink="http://www.w3.org/1999/xlink" width="256" height="256"><svg width="256" height="256" viewBox="0 0 256 256" fill="none" xmlns="http://www.w3.org/2000/svg">
<g><path fill-rule="evenodd" clip-rule="evenodd" d="M205.443 118.639C203.592 103.255 197.262 89.2318 187.786 77.9302C175.564 63.3096 159.102 54.3231 141.686 51.228C122.934 47.8674 104.538 51.5433 89.2048 60.3556C72.6681 69.815 60.9273 84.4523 54.8288 101.048C48.224 118.921 48.6223 137.682 54.6047 154.328C61.0186 172.267 73.3568 186.39 88.6323 195.31C105.069 204.944 123.606 207.848 141.039 204.878C156.513 202.272 170.146 195.252 180.883 185.336C184.683 181.818 184.177 175.852 180.235 172.491C176.294 169.139 170.428 169.679 166.495 173.047C158.173 180.167 148.249 184.648 137.91 186.399C123.647 188.83 109.691 185.926 98.0996 179.13C85.6037 171.836 76.7753 160.651 72.2449 148.005C67.3495 134.388 67.7644 120.141 72.4109 107.537C77.3976 93.9449 86.8649 83.2989 98.5227 76.6192C111.068 69.4001 125.166 67.3174 138.392 69.6822C152.638 72.2048 164.786 79.6561 173.407 89.962C180.551 98.4755 184.882 108.416 186.508 118.664C187.321 123.775 191.445 127.999 196.623 127.999C201.8 127.999 206.057 123.784 205.443 118.639Z" fill="white"></path>
<path d="M199.726 148.934C199.726 154.104 195.536 158.294 190.375 158.294C185.205 158.294 181.015 154.104 181.015 148.934C181.015 143.765 185.205 139.574 190.375 139.574C195.536 139.574 199.726 143.765 199.726 148.934Z" fill="white"></path>
</g>
</svg><style>@media (prefers-color-scheme: light) { :root { filter: invert(100%); } }
@media (prefers-color-scheme: dark) { :root { filter: none; } }
</style></svg>